<svg xmlns="http://www.w3.org/2000/svg" fill="none" viewBox="0 0 270 270" height="270" width="270">
<path fill="#EA4335" d="M131.602 129.08L21.2666 245.064C21.2727 245.088 21.2787 245.112 21.2848 245.133C24.6691 257.726 36.2802 267 50.068 267C55.5746 267 60.7492 265.524 65.1871 262.936L65.5374 262.728L189.733 191.754L131.602 129.08Z"></path>
<path fill="#FBBC04" d="M243.227 109.329L243.121 109.26L189.504 78.4721L129.096 131.712L189.715 191.739L243.052 161.262C252.402 156.26 258.751 146.499 258.751 135.245C258.751 124.059 252.489 114.35 243.227 109.329Z"></path>
<path fill="#4285F4" d="M21.2606 24.9301C20.5994 27.3543 20.2492 29.8963 20.2492 32.5259V237.474C20.3579 240.415 20.5964 242.652 21.2666 245.064L135.397 132.05L21.2606 24.9301Z"></path>
<path fill="#34A853" d="M132.417 135L189.522 78.454L65.4679 7.22057C60.9606 4.54573 55.6984 3 50.068 3C36.2802 3 24.651 12.2925 21.2667 24.9029C21.2636 24.9119 21.2636 24.921 21.2606 24.9331L132.417 135Z"></path>
</svg>
