<svg xmlns="http://www.w3.org/2000/svg" fill="none" viewBox="0 0 132 132" height="132" width="132">
<path fill="url(#paint0_linear_2978_113253)" d="M113.876 36.5062L116.708 29.4257C116.708 29.4257 113.104 25.492 108.728 21.0339C104.352 16.5758 95.086 19.1982 95.086 19.1982L84.5328 7H66H47.4673L36.9138 19.1982C36.9138 19.1982 27.6475 16.5758 23.2715 21.0339C18.8958 25.492 15.2922 29.4257 15.2922 29.4257L18.1236 36.5062L14.52 46.9959C14.52 46.9959 25.1185 87.8938 26.3604 92.8882C28.8056 102.722 30.4788 106.525 37.4287 111.507C44.3783 116.49 56.9908 125.144 59.0501 126.455C61.1094 127.766 63.6833 130 66 130C68.3165 130 70.8904 127.766 72.9497 126.455C75.009 125.144 87.6215 116.49 94.5711 111.507C101.521 106.525 103.194 102.722 105.639 92.8882C106.881 87.8938 117.48 46.9959 117.48 46.9959L113.876 36.5062Z" clip-rule="evenodd" fill-rule="evenodd"></path>
<path fill="white" d="M65.9977 83.5447C66.7031 83.5447 71.2236 85.1706 74.8512 87.083C78.4784 88.9955 81.1071 90.3479 81.9477 90.8836C82.7879 91.4198 82.2754 92.43 81.5101 92.9813C80.7446 93.5326 70.4585 101.647 69.4603 102.544C68.4619 103.441 66.9951 104.923 65.9977 104.923C65.0001 104.923 63.5331 103.441 62.5349 102.544C61.5363 101.647 51.2506 93.5326 50.4851 92.9813C49.7196 92.43 49.2076 91.4198 50.0475 90.8836C50.8881 90.3479 53.5169 88.9955 57.1445 87.083C60.7714 85.1706 65.2922 83.5447 65.9977 83.5447ZM66.0528 25.7477C66.3992 25.7574 68.3511 25.854 71.1457 26.8031C74.2345 27.8521 77.5806 29.1634 79.125 29.1634C80.6695 29.1634 92.1237 26.9343 92.1237 26.9343C92.1237 26.9343 105.698 43.6522 105.698 47.2252C105.698 50.7983 103.99 51.7413 102.273 53.5988C100.557 55.4562 93.0584 63.5684 92.0954 64.6101C91.1324 65.652 89.1278 67.2314 90.307 70.0743C91.486 72.9172 93.2257 76.5349 91.2913 80.2043C89.3567 83.8736 86.0426 86.3226 83.919 85.9177C81.7956 85.5126 76.8083 82.8573 74.9744 81.6445C73.1405 80.4317 67.3278 75.5477 67.3278 73.6789C67.3278 71.8104 73.3365 68.4552 74.4463 67.6929C75.5567 66.931 80.6197 63.9805 80.7235 62.8223C80.8269 61.664 80.7877 61.3245 79.2934 58.4628C77.7992 55.6009 75.1084 51.7822 75.5561 49.2414C76.004 46.7007 80.3437 45.3796 83.4409 44.188C86.5374 42.9967 92.5001 40.7463 93.2447 40.3964C93.9899 40.0464 93.7973 39.713 91.5407 39.4951C89.2845 39.2771 82.8816 38.4112 79.9948 39.2311C77.108 40.0508 72.1762 41.298 71.7768 41.9595C71.3774 42.6207 71.025 42.6431 71.4352 44.9245C71.8452 47.2062 73.9574 58.1537 74.1623 60.0982C74.3676 62.0427 74.7685 63.3283 72.7107 63.8077C70.6524 64.287 67.1881 65.1194 65.9977 65.1194C64.8073 65.1194 61.3426 64.287 59.2848 63.8077C57.2265 63.3283 57.6276 62.0427 57.8327 60.0982C58.0378 58.1537 60.1499 47.2062 60.56 44.9245C60.9702 42.6431 60.6178 42.6207 60.2186 41.9595C59.819 41.298 54.8871 40.0508 52.0003 39.2311C49.1137 38.4112 42.7107 39.2771 40.4543 39.4951C38.198 39.713 38.0056 40.0464 38.7504 40.3964C39.4954 40.7463 45.458 42.9967 48.5545 44.188C51.6513 45.3796 55.9912 46.7007 56.4391 49.2414C56.8871 51.7822 54.1959 55.6009 52.702 58.4628C51.2078 61.3245 51.1681 61.664 51.2719 62.8223C51.3753 63.9805 56.4387 66.931 57.5487 67.6929C58.659 68.4552 64.6672 71.8104 64.6672 73.6789C64.6672 75.5477 58.8548 80.4317 57.0208 81.6445C55.1869 82.8573 50.1999 85.5126 48.0762 85.9177C45.9528 86.3226 42.6387 83.8736 40.7041 80.2043C38.7698 76.5349 40.5092 72.9172 41.6882 70.0743C42.8672 67.2314 40.8628 65.652 39.8996 64.6101C38.9371 63.5684 31.4384 55.4562 29.7216 53.5988C28.0047 51.7413 26.2974 50.7983 26.2974 47.2252C26.2974 43.6522 39.8716 26.9343 39.8716 26.9343C39.8716 26.9343 51.3259 29.1634 52.8704 29.1634C54.4147 29.1634 57.761 27.8521 60.8497 26.8031C63.6443 25.854 65.5962 25.7574 65.9424 25.7477H66.0528Z" clip-rule="evenodd" fill-rule="evenodd"></path>
<path fill="url(#paint1_linear_2978_113253)" d="M95.0911 19.1982L84.5379 7H66.0052H47.4724L36.919 19.1982C36.919 19.1982 27.6526 16.5758 23.2769 21.0339C23.2769 21.0339 35.6319 19.8976 39.879 26.9343C39.879 26.9343 51.3334 29.1635 52.8778 29.1635C54.4221 29.1635 57.7684 27.8522 60.8572 26.8033C63.9459 25.7543 66.0052 25.7467 66.0052 25.7467C66.0052 25.7467 68.0643 25.7543 71.1532 26.8033C74.2419 27.8522 77.588 29.1635 79.1325 29.1635C80.677 29.1635 92.1311 26.9343 92.1311 26.9343C96.3782 19.8976 108.734 21.0339 108.734 21.0339C104.358 16.5758 95.0911 19.1982 95.0911 19.1982Z"></path>
<defs>
<linearGradient gradientUnits="userSpaceOnUse" y2="6243.78" x2="10310.5" y1="6243.78" x1="14.52" id="paint0_linear_2978_113253">
<stop stop-color="#FF5500"></stop>
<stop stop-color="#FF5500" offset="0.409877"></stop>
<stop stop-color="#FF2000" offset="0.581981"></stop>
<stop stop-color="#FF2000" offset="1"></stop>
</linearGradient>
<linearGradient gradientUnits="userSpaceOnUse" y2="1130.81" x2="8568.92" y1="1130.81" x1="206.875" id="paint1_linear_2978_113253">
<stop stop-color="#FF452A"></stop>
<stop stop-color="#FF2000" offset="1"></stop>
</linearGradient>
</defs>
</svg>
