<svg xmlns="http://www.w3.org/2000/svg" fill="none" viewBox="0 0 800 800" height="800" width="800">
<g clip-path="url(#clip0_1_50)">
<path fill="url(#paint0_linear_1_50)" d="M638.4 0H161.6C72.3 0 0 72.3 0 161.6V638.5C0 727.7 72.3 800 161.6 800H638.5C727.7 800 800.1 727.7 800.1 638.4V161.6C800 72.3 727.7 0 638.4 0Z"></path>
<path fill="white" d="M396.6 183.8L412.8 155.8C422.8 138.3 445.1 132.4 462.6 142.4C480.1 152.4 486 174.7 476 192.2L319.9 462.4H432.8C469.4 462.4 489.9 505.4 474 535.2H143C122.8 535.2 106.6 519 106.6 498.8C106.6 478.6 122.8 462.4 143 462.4H235.8L354.6 256.5L317.5 192.1C307.5 174.6 313.4 152.5 330.9 142.3C348.4 132.3 370.5 138.2 380.7 155.7L396.6 183.8ZM256.2 572.7L221.2 633.4C211.2 650.9 188.9 656.8 171.4 646.8C153.9 636.8 148 614.5 158 597L184 552C213.4 542.9 237.3 549.9 256.2 572.7ZM557.6 462.6H652.3C672.5 462.6 688.7 478.8 688.7 499C688.7 519.2 672.5 535.4 652.3 535.4H599.7L635.2 597C645.2 614.5 639.3 636.6 621.8 646.8C604.3 656.8 582.2 650.9 572 633.4C512.2 529.7 467.3 452.1 437.5 400.4C407 347.8 428.8 295 450.3 277.1C474.2 318.1 509.9 380 557.6 462.6Z"></path>
</g>
<defs>
<linearGradient gradientUnits="userSpaceOnUse" y2="800" x2="400.05" y1="0" x1="400.05" id="paint0_linear_1_50">
<stop stop-color="#18BFFB"></stop>
<stop stop-color="#2072F3" offset="1"></stop>
</linearGradient>
<clipPath id="clip0_1_50">
<rect fill="white" height="800" width="800"></rect>
</clipPath>
</defs>
</svg>
